#define pattern_width 8
#define pattern_height 14
static unsigned char pattern_bits[] = {
   0xff, 0x81, 0xbd, 0x81, 0x81, 0xbd, 0xbd, 0x81, 0xbd, 0xa5, 0xbd, 0x81,
   0x81, 0xff };
